<?xml version="1.0" encoding="utf-8"?>
<!-- Generator: Adobe Illustrator 24.3.0, SVG Export Plug-In . SVG Version: 6.00 Build 0)  -->
<svg version="1.1" id="Layer_1" xmlns="http://www.w3.org/2000/svg" xmlns:xlink="http://www.w3.org/1999/xlink" x="0px" y="0px"
	 width="447px" height="123px" viewBox="0 0 447 123" style="enable-background:new 0 0 447 123;" xml:space="preserve">
<style type="text/css">
	.st0{fill:#FFFFFF;}
	.st1{fill:none;stroke:#FFFFFF;stroke-width:1.5;}
	.st2{fill:none;stroke:#FFFFFF;stroke-width:1.8;stroke-linejoin:round;}
	.st3{fill:#00A5B5;}
	.st4{fill:none;stroke:#0592A0;}
	.st5{fill:none;stroke:#666666;}
	.st6{fill:none;stroke:#CCCCCC;}
	.st7{fill:none;stroke:#007075;stroke-width:2;}
	.st8{opacity:0.7;fill:none;stroke:#007075;stroke-width:2;enable-background:new    ;}
	.st9{fill:#999999;}
	.st10{fill:#888887;}
	.st11{fill:#6C6C6C;}
	.st12{fill:none;stroke:#E02727;}
	.st13{fill:#666666;}
	.st14{fill:#333333;}
	.st15{fill:#111111;}
	.st16{fill:#008489;}
	.st17{fill:#E7E7E7;}
	.st18{fill:#D2D2D2;}
	.st19{fill:#ABB9C3;}
	.st20{fill:#EFC002;}
	.st21{fill:#CCCCCC;}
	.st22{clip-path:url(#SVGID_2_);}
	.st23{fill:#424242;}
	.st24{clip-path:url(#SVGID_4_);}
	.st25{fill:none;stroke:#000000;stroke-width:0.75;stroke-linejoin:round;stroke-miterlimit:10;}
	.st26{clip-path:url(#SVGID_6_);fill:#FFCA38;}
	.st27{clip-path:url(#SVGID_8_);fill:none;stroke:#000000;stroke-width:0.75;stroke-linejoin:round;stroke-miterlimit:10;}
	.st28{clip-path:url(#SVGID_10_);}
	.st29{fill:#AB8787;}
	.st30{clip-path:url(#SVGID_12_);}
	.st31{clip-path:url(#SVGID_14_);}
	.st32{clip-path:url(#SVGID_16_);}
	
		.st33{clip-path:url(#SVGID_18_);fill:none;stroke:#000000;stroke-width:0.75;stroke-linecap:round;stroke-linejoin:round;stroke-miterlimit:10;}
	
		.st34{clip-path:url(#SVGID_20_);fill:none;stroke:#000000;stroke-width:0.75;stroke-linecap:round;stroke-linejoin:round;stroke-miterlimit:10;}
	
		.st35{clip-path:url(#SVGID_22_);fill:none;stroke:#000000;stroke-width:0.75;stroke-linecap:round;stroke-linejoin:round;stroke-miterlimit:10;}
	
		.st36{clip-path:url(#SVGID_24_);fill:none;stroke:#000000;stroke-width:0.75;stroke-linecap:round;stroke-linejoin:round;stroke-miterlimit:10;}
	
		.st37{clip-path:url(#SVGID_26_);fill:none;stroke:#000000;stroke-width:0.75;stroke-linecap:round;stroke-linejoin:round;stroke-miterlimit:10;}
	
		.st38{clip-path:url(#SVGID_28_);fill:none;stroke:#000000;stroke-width:0.75;stroke-linecap:round;stroke-linejoin:round;stroke-miterlimit:10;}
	.st39{fill:#606060;}
	.st40{fill:none;stroke:#00A5B5;}
	.st41{fill:#4ACCA9;stroke:#000000;stroke-width:0.5;stroke-linejoin:round;stroke-miterlimit:10;}
	.st42{fill:#FFFFFF;stroke:#000000;stroke-width:0.5;stroke-linejoin:round;stroke-miterlimit:10;}
	.st43{fill:#FF6666;}
	.st44{fill:#F3F4F5;}
	.st45{fill:#00C4EF;stroke:#000000;stroke-width:0.5;stroke-linecap:round;stroke-linejoin:round;stroke-miterlimit:10;}
	.st46{fill:#333366;}
	.st47{fill:#666667;}
	.st48{fill:#FFCA38;stroke:#000000;stroke-width:0.5;stroke-linejoin:round;}
	.st49{fill:#EC2227;}
	.st50{fill:#086DB5;}
	.st51{fill:#2EAAE1;}
	.st52{fill:none;stroke:#000000;stroke-width:0.5;}
	.st53{fill:#FF9327;}
	.st54{fill:none;stroke:#000000;stroke-width:0.5;stroke-linecap:round;stroke-linejoin:round;}
	.st55{fill:none;stroke:#000000;stroke-width:0.478;}
	.st56{fill:none;stroke:#FFFFFF;stroke-linecap:round;stroke-linejoin:round;stroke-miterlimit:10;}
	.st57{fill:none;stroke:#00A5B5;stroke-linecap:round;stroke-linejoin:round;}
	.st58{fill:#00A5B5;stroke:#00A5B5;stroke-linejoin:round;}
	.st59{fill:none;stroke:#008489;stroke-width:1.5;stroke-linecap:round;stroke-linejoin:round;stroke-miterlimit:10;}
	.st60{fill-rule:evenodd;clip-rule:evenodd;fill:#726BD8;}
</style>
<path class="st0" d="M60.1,29c-1.2,0-2.3-0.1-3.4-0.5h-0.1c-0.6-0.2-1.1-0.8-1-1.5v-2.2c1.3,0.7,2.8,1.1,4.3,1.1
	c0.4,0,0.8,0,1.2-0.1h0.1l0.6-0.3l0.2-0.2c0.1-0.2,0.1-0.4,0.1-0.5c0-0.3-0.2-0.6-0.4-0.8c-0.1,0-0.1,0-0.2-0.1
	c-0.1,0-0.2,0-0.2-0.1L58,22.3l-1.1-0.6c-0.9-0.6-1.5-1.6-1.5-2.7v-0.4c0.3-1.8,1.7-3.2,3.5-3.4c0.4-0.1,0.8-0.1,1.1-0.1
	c1.3-0.1,2.5,0.1,3.8,0.5c0.1,0,0.2,0.1,0.3,0.1c0.2,0.2,0.3,0.4,0.3,0.6v2.5c-1-0.3-2.1-0.5-3.1-0.6h-1c-0.2,0-0.4,0-0.6,0.1h-0.2
	c-0.1,0-0.2,0-0.2,0.1h-0.1c-0.1,0.1-0.2,0.3-0.2,0.5c0,0.3,0.1,0.5,0.4,0.7H59l3.3,1.5c0.5,0.2,0.9,0.5,1.4,0.9
	c0.7,0.6,1.2,1.4,1.3,2.4v0.1c0.1,0.3,0,0.6,0,0.9c-0.2,1.8-1.6,3.3-3.5,3.6C61,28.9,60.6,28.9,60.1,29z M14.8,29
	c-1.2,0-2.3-0.1-3.4-0.5h-0.1c-0.6-0.2-1.1-0.8-1-1.5v-2.2c1.3,0.7,2.8,1.1,4.3,1.1c0.4,0,0.8,0,1.2-0.1h0.1l0.6-0.3l0.2-0.2
	c0.1-0.2,0.1-0.4,0.1-0.5c0-0.3-0.2-0.6-0.4-0.8c-0.1,0-0.1,0-0.2-0.1c-0.1,0-0.2,0-0.2-0.1l-3.3-1.5l-1.1-0.6
	C10.6,21,10,20,10,18.9v-0.5c0.3-1.8,1.7-3.2,3.5-3.4c0.4-0.1,0.8-0.1,1.1-0.1c1.3-0.1,2.5,0.1,3.8,0.5c0.1,0,0.2,0.1,0.3,0.1
	c0.2,0.2,0.3,0.4,0.3,0.6v2.5c-1-0.3-2.1-0.5-3.1-0.6h-1c-0.2,0-0.4,0-0.6,0.1h-0.2c-0.1,0-0.2,0-0.2,0.1c0,0-0.1,0,0,0
	c-0.1,0.1-0.2,0.3-0.2,0.5c0,0.3,0.1,0.5,0.4,0.7H14l3.3,1.5c0.5,0.2,0.9,0.5,1.4,0.9c0.7,0.6,1.2,1.4,1.3,2.4v0.1
	c0.1,0.3,0,0.6,0,0.9c-0.2,1.8-1.6,3.3-3.5,3.6C16.5,28.8,14.8,29,14.8,29z M87,28.9c-1.6-0.3-3.1-1.2-4.1-2.5
	c-2.1-2.6-2.1-6.4,0.1-9c2.3-2.8,6.4-3.3,9.4-1.1v-1h2.7v13.5c-1,0-2-0.5-2.7-1.2c-1.1,0.9-2.5,1.5-4,1.5C88,29,87.5,28.9,87,28.9z
	 M88.4,17.9c-2.3,0.1-4,1.9-4,4.1s1.9,4,4.1,3.9c2.2,0,4-1.9,3.9-4.1C92.4,19.7,90.6,17.9,88.4,17.9z M51.7,28.8
	c-0.6,0-1.3-0.2-1.7-0.7l-4.3-5.9l4.3-5.9c0.4-0.5,1-0.7,1.7-0.7h2.5L49.4,22l4.8,6.7L51.7,28.8z M77.4,28.7c-0.6,0-1.1-0.4-1.1-1
	v-7.8c0.1-0.8-0.4-1.5-1.1-1.7c-1.2-0.4-2.4-0.4-3.6,0c-0.8,0.2-1.3,0.9-1.2,1.7v8.7h-3V10.4h3v5.2c0.3-0.1,0.5-0.1,0.7-0.2
	c2-0.8,4.3-0.6,6.2,0.6c1.2,0.8,2,2.1,2,3.5v9.2H77.4z M42.8,28.7V10.4h3v18.3C45.8,28.7,42.8,28.7,42.8,28.7z M38,28.7
	c-0.6,0-1.1-0.4-1.1-1V15.2h3v13.4C39.8,28.7,38,28.7,38,28.7z M22,28.7V10.4h3v5.2c0.3-0.1,0.5-0.1,0.7-0.2c2-0.8,4.3-0.6,6.2,0.6
	c1.2,0.8,2,2.1,2,3.5v9.1H32c-0.6,0-1.1-0.4-1.1-1v-7.8c0.1-0.8-0.4-1.5-1.1-1.7c-1.2-0.4-2.4-0.4-3.6,0c-0.8,0.2-1.3,0.9-1.2,1.7
	v8.8h-3C22,28.6,22,28.7,22,28.7z M36.6,11.8c0-1,0.8-1.8,1.8-1.8l0,0c1,0,1.7,0.8,1.7,1.8c0,0.9-0.7,1.7-1.6,1.8
	C37.4,13.6,36.6,12.8,36.6,11.8z M120.5,24h-14.7c-0.4,0-0.6-0.3-0.6-0.7v-1.2c0-0.4,0.3-0.7,0.6-0.7h14.7c0.4,0,0.6,0.3,0.6,0.7
	v1.2C121.1,23.7,120.8,24,120.5,24z M120.5,18.3h-14.7c-0.4,0-0.6-0.3-0.6-0.7v-1.2c0-0.4,0.3-0.7,0.6-0.7h14.7
	c0.4,0,0.6,0.3,0.6,0.7v1.2C121.1,18,120.8,18.3,120.5,18.3z M120.5,12.5h-14.7c-0.4,0-0.6-0.3-0.6-0.7v-1.2c0-0.4,0.3-0.7,0.6-0.7
	h14.7c0.4,0,0.6,0.3,0.6,0.7v1.2C121.1,12.2,120.8,12.5,120.5,12.5z"/>
<g>
	<path class="st1" d="M148.1,23.2v1.6h-5.7c0,1.3-1.1,2.3-2.4,2.2c-1.2,0-2.2-1-2.2-2.2h-5.7v-1.6c3.9-1.2,1.8-8.1,5.5-10.2
		c0.5-0.3,0.8-0.8,0.8-1.4c0-0.9,0.8-1.6,1.7-1.6s1.6,0.7,1.6,1.6l0,0c0,0.6,0.3,1.1,0.8,1.4C146.3,15.1,144.2,22,148.1,23.2
		L148.1,23.2z"/>
	<path class="st2" d="M160,10.8h15.2c0.6,0,1.1,0.5,1.1,1.1v10.9c0,0.6-0.5,1.1-1.1,1.1h-4.6l-2.8,3.3l-3-3.3h-4.9
		c-0.6,0-1.1-0.5-1.1-1.1V11.9C158.9,11.3,159.4,10.8,160,10.8L160,10.8z"/>
</g>
<g>
	<path class="st0" d="M164.6,20.1l-0.3-1.3h-1.7l-0.3,1.3h-1l1.6-5.4h1.2l1.6,5.4H164.6z M164,17.9l-0.5-2c0-0.2-0.1-0.3-0.1-0.4
		c-0.1,0.3-0.3,1.1-0.6,2.3h1.2L164,17.9L164,17.9z M169.2,18.6c0,0.4-0.1,0.8-0.4,1.1s-0.8,0.4-1.2,0.4c-0.5,0-0.9-0.1-1.3-0.3
		v-1.1c0.3,0.1,0.5,0.3,0.8,0.3c0.2,0.1,0.4,0.1,0.6,0.1s0.3,0,0.5-0.1c0.1-0.1,0.2-0.2,0.2-0.4c0-0.1,0-0.2-0.1-0.3
		s-0.1-0.2-0.2-0.2c-0.2-0.1-0.4-0.3-0.6-0.4s-0.4-0.3-0.6-0.4c-0.1-0.1-0.3-0.3-0.3-0.5c-0.1-0.2-0.1-0.4-0.1-0.7
		c0-0.4,0.1-0.8,0.4-1.1s0.7-0.4,1.1-0.4c0.2,0,0.5,0,0.7,0.1s0.5,0.2,0.7,0.3l-0.3,0.9c-0.2-0.1-0.4-0.2-0.6-0.2s-0.3-0.1-0.5-0.1
		s-0.3,0-0.4,0.1c-0.2,0.2-0.2,0.4-0.1,0.7c0,0.1,0.1,0.2,0.2,0.2c0.2,0.1,0.4,0.3,0.6,0.4c0.3,0.2,0.6,0.4,0.9,0.7
		C169.1,18,169.2,18.3,169.2,18.6L169.2,18.6z M174,20.1h-1.1l-1.2-2.3l-0.4,0.3V20h-1v-5.4h1v2.5l1.6-2.4h1.1l-1.6,2.4L174,20.1
		L174,20.1z M204.9,25.2l-4.6-4.6c0.8-1.4,1.1-3.1,0.9-4.7c-0.7-3.9-4.3-6.5-8.2-5.8s-6.5,4.3-5.8,8.2s4.3,6.5,8.2,5.8
		c0.8-0.1,1.6-0.4,2.3-0.8c0,0,0,0.1,0.1,0.1l4.5,4.5c0.2,0.2,0.6,0.2,0.9,0l1.8-1.8C205.1,25.8,205.1,25.4,204.9,25.2L204.9,25.2z
		 M194.2,22.2c-2.8,0-5.1-2.3-5.1-5.1s2.3-5.1,5.1-5.1s5.1,2.3,5.1,5.1S197,22.2,194.2,22.2z M218.8,16.2h14.3v2.6h-14.3V16.2z"/>
	<path class="st0" d="M225.1,24l-6.3-6.5l6.3-6.5h-2.7l-6.3,6.5l6.3,6.5H225.1z"/>
</g>
<path class="st3" d="M245.2,18.8l1.3-1.6l3.3,2.8l5.8-7l1.6,1.4l-7.1,8.6L245.2,18.8L245.2,18.8z"/>
<g>
	<path class="st4" d="M243.2,10h16v16h-16L243.2,10L243.2,10z"/>
	<path class="st5" d="M269.2,10h16v16h-16V10z"/>
	<path class="st6" d="M295.2,10h16v16h-16V10z"/>
	<g>
		<path class="st7" d="M321.6,13.4l3.8,4.1l-3.8,4.1 M340.8,21.7l-3.9-4.2l3.9-4.2"/>
		<path class="st8" d="M355.8,21.7l-3.9-4.2l3.9-4.2 M366.6,13.3l4,4.2l-4,4.2"/>
	</g>
</g>
<path class="st9" d="M327.2,28.8l-4,3.2l-4-3.2l-1,1l5,4.1l5-4.1L327.2,28.8 M348.2,34l4-3.2l4,3.2l1-1l-5-4l-5,4L348.2,34
	 M336.2,27.8l3.2,3.2l-3.2,3.2l1,0.8l4-4l-4-4L336.2,27.8"/>
<g>
	<path class="st10" d="M367.3,37.8c-0.2,0-0.4-0.1-0.4-0.3c-0.4-0.7-3.5-6.7-3.5-8.6c0-2.2,1.8-3.9,3.9-3.9s3.9,1.8,3.9,3.9
		c0,1.9-3.1,8-3.5,8.6C367.6,37.7,367.5,37.8,367.3,37.8z M367.3,26c-1.6,0-2.9,1.3-2.9,2.9c0,1.3,1.8,5.1,2.9,7.3
		c1.1-2.2,2.9-6.1,2.9-7.3C370.2,27.3,368.9,26,367.3,26z"/>
	<circle class="st10" cx="367.3" cy="29" r="1.3"/>
</g>
<path class="st11" d="M377.1,17l4.4-4.2L386,17h2.1l-6.6-6.2l-6.6,6.2H377.1z M386,18l-4.5,4.2L377,18h-2.1l6.6,6.2l6.6-6.2H386z"/>
<path class="st12" d="M398.6,10h16v16h-16V10z"/>
<path class="st13" d="M433.7,21h-0.8l-0.3-0.3c1-1.1,1.6-2.6,1.6-4.2c0-3.6-2.9-6.5-6.5-6.5s-6.5,2.9-6.5,6.5s2.9,6.5,6.5,6.5l0,0
	c1.6,0,3.1-0.6,4.2-1.6l0.3,0.3v0.8l5,5l1.5-1.5L433.7,21L433.7,21z M427.7,21c-2.5,0-4.5-2-4.5-4.5l0,0c0-2.5,2-4.5,4.5-4.5
	s4.5,2,4.5,4.5l0,0C432.2,19,430.2,21,427.7,21L427.7,21z"/>
<path class="st14" d="M366.2,44.7c-0.1-0.2-0.3-0.3-0.4-0.3h-11c-0.2,0-0.4,0.1-0.4,0.3c-0.1,0.2-0.1,0.4,0,0.5l3.8,5.6v4.4
	c0,0.2,0.1,0.4,0.3,0.4l3.2,1.7c0.1,0,0.1,0.1,0.2,0.1s0.2,0,0.3-0.1s0.2-0.2,0.2-0.4v-5.8l3.9-5.9C366.3,45,366.3,44.8,366.2,44.7z
	 M361.3,56.1l-2.2-1.1v-3.6h2.2V56.1z M361.5,50.4H359l-3.3-5h9.1L361.5,50.4z"/>
<path class="st15" d="M326.5,50.3c0,0.7-0.2,1.4-0.5,2l-3,5.1l-3-5.1c-0.3-0.5-0.5-1.1-0.5-2.1c0-2.1,1.6-3.9,3.5-3.9
	C324.9,46.4,326.5,48.2,326.5,50.3z M321.5,50c0,0.9,0.7,1.6,1.5,1.6s1.4-0.7,1.4-1.6s-0.6-1.6-1.4-1.6S321.5,49.1,321.5,50z"/>
<path class="st16" d="M335.4,49.6c0,3,2.2,5.6,5,6.1v1.7l4.6-2.6l-4.6-2.6v1.5c-1.8-0.5-3.1-2.2-3.1-4.1c0-2.3,1.9-4.3,4.3-4.3
	s4.3,1.9,4.3,4.3c0,0.6-0.1,1.2-0.4,1.8l1.8,0.8c0.4-0.8,0.6-1.7,0.6-2.6c0-3.4-2.8-6.2-6.2-6.2C338.2,43.4,335.4,46.2,335.4,49.6
	L335.4,49.6z"/>
<g>
	<path id="B" class="st3" d="M285.1,54.6l-2.9-2.9l-1.4,1.4l4.3,4.3l8.7-8.5l-1.4-1.5L285.1,54.6L285.1,54.6z"/>
</g>
<g>
	<path class="st17" d="M303.1,54.6l-2.9-2.9l-1.4,1.4l4.3,4.3l8.7-8.5l-1.4-1.5L303.1,54.6L303.1,54.6z"/>
</g>
<path class="st18" d="M272.6,56.3c0.1,0.1,0.1,0.4,0,0.5l-0.5,0.5c-0.1,0.1-0.4,0.1-0.5,0l-3.6-3.6c-0.7,0.5-1.6,0.8-2.6,0.8
	c-2.4,0-4.3-1.9-4.3-4.3s1.9-4.3,4.3-4.3s4.3,1.9,4.3,4.3c0,1-0.3,1.8-0.8,2.6c0,0,0.1,0,0.1,0.1L272.6,56.3z M265.4,47.3
	c-1.6,0-2.9,1.3-2.9,2.9s1.3,2.9,2.9,2.9s2.9-1.3,2.9-2.9S267.1,47.3,265.4,47.3z"/>
<g>
	<path id="C" class="st19" d="M244.7,40.4l3,5.3l6,1.2l-4.2,4.4l0.8,6l-5.6-2.5l-5.6,2.6l0.8-6l-4.2-4.5l6-1.1L244.7,40.4"/>
</g>
<g>
	<path class="st20" d="M220.6,40.4l3,5.3l6,1.2l-4.2,4.4l0.8,6l-5.6-2.5l-5.6,2.6l0.8-6l-4.2-4.5l6-1.1L220.6,40.4"/>
</g>
<g>
	<path id="D" class="st3" d="M163.2,49.9c0,2.2-4,7.5-4,7.5s-4-5.3-4-7.5s1.8-4,4-4S163.2,47.7,163.2,49.9z"/>
</g>
<circle class="st0" cx="159.2" cy="49.9" r="2"/>
<g>
	<path id="E" class="st21" d="M135.2,56l-1.4,1.4l-5.6-6l5.6-6l1.4,1.4l-4.4,4.6L135.2,56z M140.2,46.8l1.3-1.4l5.7,6l-5.7,6
		l-1.3-1.4l4.4-4.6L140.2,46.8z"/>
</g>
<g>
	<path class="st3" d="M112.1,56l-1.4,1.4l-5.6-6l5.6-6l1.4,1.4l-4.4,4.6L112.1,56z M117.1,46.8l1.3-1.4l5.7,6l-5.7,6l-1.3-1.4
		l4.4-4.6L117.1,46.8z"/>
</g>
<g>
	<g>
		<defs>
			<rect id="SVGID_1_" x="66.5" y="40.5" width="27.8" height="24.6"/>
		</defs>
		<clipPath id="SVGID_2_">
			<use xlink:href="#SVGID_1_"  style="overflow:visible;"/>
		</clipPath>
		<g class="st22">
			<g>
				<path id="F" class="st23" d="M78.4,62.9v1.2c0,0.4,0.3,0.7,0.7,0.7l0,0h2.8c0.4,0,0.7-0.3,0.7-0.7l0,0v-1.2
					C82.6,62.9,78.4,62.9,78.4,62.9z"/>
			</g>
		</g>
	</g>
</g>
<g>
	<g>
		<defs>
			<rect id="SVGID_3_" x="66.5" y="40.5" width="27.8" height="24.6"/>
		</defs>
		<clipPath id="SVGID_4_">
			<use xlink:href="#SVGID_3_"  style="overflow:visible;"/>
		</clipPath>
		<g class="st24">
			<g>
				<path class="st25" d="M78.4,62.9v1.2c0,0.4,0.3,0.7,0.7,0.7l0,0h2.8c0.4,0,0.7-0.3,0.7-0.7l0,0v-1.2
					C82.6,62.9,78.4,62.9,78.4,62.9z"/>
			</g>
		</g>
	</g>
</g>
<g>
	<g>
		<defs>
			<rect id="SVGID_5_" x="66.5" y="40.5" width="27.8" height="24.6"/>
		</defs>
		<clipPath id="SVGID_6_">
			<use xlink:href="#SVGID_5_"  style="overflow:visible;"/>
		</clipPath>
		<path class="st26" d="M80.6,40.8c-4.4-0.1-8,3.3-8.1,7.7v0.2c0,2.3,0.9,4.3,2.4,5.8c0.8,0.8,1.4,1.8,1.8,2.9l0.7,2h6.4l0.7-2
			c0.4-1.1,1-2.1,1.8-2.9c1.5-1.5,2.4-3.5,2.4-5.7C88.5,44.5,85,40.9,80.6,40.8"/>
	</g>
</g>
<g>
	<g>
		<defs>
			<rect id="SVGID_7_" x="66.5" y="40.5" width="27.8" height="24.6"/>
		</defs>
		<clipPath id="SVGID_8_">
			<use xlink:href="#SVGID_7_"  style="overflow:visible;"/>
		</clipPath>
		<path class="st27" d="M80.6,40.8c-4.4-0.1-8,3.3-8.1,7.7v0.2c0,2.3,0.9,4.3,2.4,5.8c0.8,0.8,1.4,1.8,1.8,2.9l0.7,2h6.4l0.7-2
			c0.4-1.1,1-2.1,1.8-2.9c1.5-1.5,2.4-3.5,2.4-5.7C88.5,44.5,85,40.9,80.6,40.8z"/>
	</g>
</g>
<g>
	<g>
		<defs>
			<rect id="SVGID_9_" x="66.5" y="40.5" width="27.8" height="24.6"/>
		</defs>
		<clipPath id="SVGID_10_">
			<use xlink:href="#SVGID_9_"  style="overflow:visible;"/>
		</clipPath>
		<g class="st28">
			<g>
				<path id="G" class="st29" d="M83.6,59.4h-6.2c-0.4,0-0.7,0.3-0.7,0.7l0,0v0.3c0,0.4,0.3,0.7,0.7,0.7l0,0h6.2
					c0.4,0,0.7-0.3,0.7-0.7l0,0v-0.3C84.3,59.8,84,59.5,83.6,59.4"/>
			</g>
		</g>
	</g>
</g>
<g>
	<g>
		<defs>
			<rect id="SVGID_11_" x="66.5" y="40.5" width="27.8" height="24.6"/>
		</defs>
		<clipPath id="SVGID_12_">
			<use xlink:href="#SVGID_11_"  style="overflow:visible;"/>
		</clipPath>
		<g class="st30">
			<g>
				<path id="H" class="st25" d="M83.6,59.4h-6.2c-0.4,0-0.7,0.3-0.7,0.7l0,0v0.3c0,0.4,0.3,0.7,0.7,0.7l0,0h6.2
					c0.4,0,0.7-0.3,0.7-0.7l0,0v-0.3C84.3,59.8,84,59.5,83.6,59.4z"/>
			</g>
		</g>
	</g>
</g>
<g>
	<g>
		<defs>
			<rect id="SVGID_13_" x="66.5" y="40.5" width="27.8" height="24.6"/>
		</defs>
		<clipPath id="SVGID_14_">
			<use xlink:href="#SVGID_13_"  style="overflow:visible;"/>
		</clipPath>
		<g class="st31">
			<g>
				<path class="st29" d="M83.6,61.1h-6.2c-0.4,0-0.7,0.3-0.7,0.7l0,0v0.3c0,0.4,0.3,0.7,0.7,0.7l0,0h6.2c0.4,0,0.7-0.3,0.7-0.7l0,0
					v-0.3C84.3,61.5,84,61.2,83.6,61.1"/>
			</g>
		</g>
	</g>
</g>
<g>
	<g>
		<defs>
			<rect id="SVGID_15_" x="66.5" y="40.5" width="27.8" height="24.6"/>
		</defs>
		<clipPath id="SVGID_16_">
			<use xlink:href="#SVGID_15_"  style="overflow:visible;"/>
		</clipPath>
		<g class="st32">
			<g>
				<path class="st25" d="M83.6,61.1h-6.2c-0.4,0-0.7,0.3-0.7,0.7l0,0v0.3c0,0.4,0.3,0.7,0.7,0.7l0,0h6.2c0.4,0,0.7-0.3,0.7-0.7l0,0
					v-0.3C84.3,61.5,84,61.2,83.6,61.1z"/>
			</g>
		</g>
	</g>
</g>
<g>
	<g>
		<defs>
			<rect id="SVGID_17_" x="66.5" y="40.5" width="27.8" height="24.6"/>
		</defs>
		<clipPath id="SVGID_18_">
			<use xlink:href="#SVGID_17_"  style="overflow:visible;"/>
		</clipPath>
		<path class="st33" d="M90.8,44.9l2.2-2.2"/>
	</g>
</g>
<g>
	<g>
		<defs>
			<rect id="SVGID_19_" x="66.5" y="40.5" width="27.8" height="24.6"/>
		</defs>
		<clipPath id="SVGID_20_">
			<use xlink:href="#SVGID_19_"  style="overflow:visible;"/>
		</clipPath>
		<path class="st34" d="M90.4,52.8l2.2,2.2"/>
	</g>
</g>
<g>
	<g>
		<defs>
			<rect id="SVGID_21_" x="66.5" y="40.5" width="27.8" height="24.6"/>
		</defs>
		<clipPath id="SVGID_22_">
			<use xlink:href="#SVGID_21_"  style="overflow:visible;"/>
		</clipPath>
		<path class="st35" d="M90.9,49.4H94"/>
	</g>
</g>
<g>
	<g>
		<defs>
			<rect id="SVGID_23_" x="66.5" y="40.5" width="27.8" height="24.6"/>
		</defs>
		<clipPath id="SVGID_24_">
			<use xlink:href="#SVGID_23_"  style="overflow:visible;"/>
		</clipPath>
		<path class="st36" d="M70,44.9l-2.2-2.2"/>
	</g>
</g>
<g>
	<g>
		<defs>
			<rect id="SVGID_25_" x="66.5" y="40.5" width="27.8" height="24.6"/>
		</defs>
		<clipPath id="SVGID_26_">
			<use xlink:href="#SVGID_25_"  style="overflow:visible;"/>
		</clipPath>
		<path class="st37" d="M70.4,52.8L68.2,55"/>
	</g>
</g>
<g>
	<g>
		<defs>
			<rect id="SVGID_27_" x="66.5" y="40.5" width="27.8" height="24.6"/>
		</defs>
		<clipPath id="SVGID_28_">
			<use xlink:href="#SVGID_27_"  style="overflow:visible;"/>
		</clipPath>
		<path class="st38" d="M69.9,49.4h-3.1"/>
	</g>
</g>
<path d="M289.5,77.4h-11.8l3.2-3.3l-1.4-1.4l-5.6,5.7l5.6,5.6l1.4-1.4l-3.2-3.2h11.8C289.5,79.4,289.5,77.4,289.5,77.4z"/>
<path class="st39" d="M310.5,74.8l-1.4-1.4l-3.6,3.6l-3.5-3.6l-1.4,1.4l3.5,3.6l-3.5,3.5l1.4,1.4l3.5-3.5l3.6,3.5l1.4-1.4l-3.6-3.5
	L310.5,74.8z"/>
<path class="st14" d="M332.3,86.9c-4.7,0-8.5-3.8-8.5-8.5s3.8-8.5,8.5-8.5s8.5,3.8,8.5,8.5S337,86.9,332.3,86.9z M332.3,71.3
	c-3.9,0-7.1,3.2-7.1,7.1s3.2,7.1,7.1,7.1s7.1-3.2,7.1-7.1C339.4,74.4,336.2,71.3,332.3,71.3z M336.2,82.2l-4.9-3.5v-4.5h1.4V78
	l4.3,3L336.2,82.2z"/>
<path class="st3" d="M360.6,77.4h-3v-3h-2v3h-3v2h3v3h2v-3h3V77.4z"/>
<circle class="st40" cx="356.6" cy="78.4" r="6.5"/>
<path d="M205.9,78.5l-6.2-5.3c-0.4-0.3-0.9-0.1-0.9,0.4v2l-2.8-2.4c-0.4-0.3-0.9-0.1-0.9,0.4v10.6c0,0.5,0.5,0.7,0.9,0.4l2.8-2.4v2
	c0,0.5,0.5,0.7,0.9,0.4l6.2-5.3C206.2,79.1,206.2,78.7,205.9,78.5z"/>
<circle cx="178.4" cy="78.1" r="6"/>
<path class="st0" d="M180,81.3l-0.1,0.5l-0.8,0.3c-0.2,0.1-0.4,0.1-0.7,0.1c-0.4,0-0.7-0.1-1-0.3c-0.2-0.2-0.3-0.5-0.3-0.8v-0.4
	c0-0.1,0-0.3,0.1-0.4l0.4-1.5c0-0.1,0.1-0.3,0.1-0.4V78c0-0.2,0-0.3-0.1-0.4s-0.2-0.1-0.5-0.1c-0.1,0-0.2,0-0.3,0.1
	c-0.1,0-0.2,0.1-0.3,0.1l0.1-0.5l0.8-0.3c0.3-0.1,0.5-0.1,0.7-0.1c0.4,0,0.7,0.1,1,0.3c0.2,0.2,0.3,0.5,0.3,0.8v0.3
	c0,0.2,0,0.3-0.1,0.5l-0.4,1.5c0,0.1-0.1,0.3-0.1,0.4V81c0,0.2,0,0.3,0.1,0.4s0.2,0.1,0.5,0.1c0.1,0,0.2,0,0.4-0.1
	C179.9,81.3,180,81.3,180,81.3L180,81.3z M180.2,74.9c0,0.3-0.1,0.5-0.3,0.7s-0.4,0.3-0.7,0.3s-0.5-0.1-0.7-0.3s-0.3-0.4-0.3-0.7
	s0.1-0.5,0.3-0.7s0.4-0.3,0.7-0.3s0.5,0.1,0.7,0.3S180.2,74.6,180.2,74.9z"/>
<circle cx="178.1" cy="49.4" r="8"/>
<g>
	<path id="I" class="st0" d="M180.3,53.6l-0.2,0.6l-1.1,0.4c-0.3,0.1-0.6,0.1-1,0.1c-0.6,0-1-0.1-1.3-0.4s-0.5-0.6-0.5-1v-0.5
		c0-0.2,0.1-0.4,0.1-0.6l0.6-2c0.1-0.2,0.1-0.4,0.1-0.6s0.1-0.3,0.1-0.5c0-0.3-0.1-0.4-0.2-0.5s-0.3-0.2-0.6-0.2
		c-0.1,0-0.3,0-0.5,0.1c-0.2,0-0.3,0.1-0.4,0.1l0.2-0.6c0.4-0.2,0.7-0.3,1.1-0.4c0.3-0.1,0.7-0.2,1-0.2c0.6,0,1,0.1,1.3,0.4
		s0.4,0.6,0.4,1v0.5c0,0.2-0.1,0.4-0.1,0.6l-0.6,2c0,0.2-0.1,0.3-0.1,0.6c0,0.2-0.1,0.4-0.1,0.5c0,0.3,0.1,0.5,0.2,0.5
		c0.1,0.1,0.3,0.1,0.6,0.1c0.1,0,0.3,0,0.5-0.1C180.1,53.7,180.2,53.7,180.3,53.6z M180.4,45.2c0,0.4-0.1,0.7-0.4,0.9
		s-0.6,0.4-1,0.4s-0.7-0.1-1-0.4c-0.3-0.2-0.4-0.5-0.4-0.9s0.1-0.7,0.4-0.9s0.6-0.4,1-0.4s0.7,0.1,1,0.4
		C180.3,44.5,180.4,44.8,180.4,45.2z"/>
</g>
<path d="M197.7,42.4c3.9,0,7,3.1,7,7s-3.1,7-7,7s-7-3.1-7-7S193.8,42.4,197.7,42.4 M197.7,41.4c-4.4,0-8,3.6-8,8s3.6,8,8,8
	s8-3.6,8-8S202.1,41.4,197.7,41.4z"/>
<g>
	<path d="M199.9,53.6l-0.2,0.6l-1.1,0.4c-0.3,0.1-0.6,0.1-1,0.1c-0.6,0-1-0.1-1.3-0.4s-0.5-0.6-0.5-1v-0.5c0-0.2,0.1-0.4,0.1-0.6
		l0.6-2c0.1-0.2,0.1-0.4,0.1-0.6s0.1-0.3,0.1-0.5c0-0.3-0.1-0.4-0.2-0.5s-0.3-0.2-0.6-0.2c-0.1,0-0.3,0-0.5,0.1
		c-0.2,0-0.3,0.1-0.4,0.1l0.2-0.6c0.4-0.2,0.7-0.3,1.1-0.4c0.3-0.1,0.7-0.2,1-0.2c0.6,0,1,0.1,1.3,0.4s0.4,0.6,0.4,1v0.5
		c0,0.2-0.1,0.4-0.1,0.6l-0.6,2c0,0.2-0.1,0.3-0.1,0.6c0,0.2-0.1,0.4-0.1,0.5c0,0.3,0.1,0.5,0.2,0.5c0.1,0.1,0.3,0.1,0.6,0.1
		c0.1,0,0.3,0,0.5-0.1C199.7,53.7,199.8,53.7,199.9,53.6z M200,45.2c0,0.4-0.1,0.7-0.4,0.9s-0.6,0.4-1,0.4s-0.7-0.1-1-0.4
		c-0.3-0.2-0.4-0.5-0.4-0.9s0.1-0.7,0.4-0.9s0.6-0.4,1-0.4s0.7,0.1,1,0.4C199.9,44.5,200,44.8,200,45.2z"/>
</g>
<path class="st16" d="M254,87.4c-5,0-9-4-9-9s4-9,9-9c4.9,0,9,4,9,8.9v0.1C263,83.3,258.9,87.4,254,87.4z M254,71.4
	c-3.9,0-7,3.1-7,7s3.1,7,7,7s7-3.1,7-7S257.9,71.4,254,71.4z M257,80.3l-2.3-2.3v-4.2c0-0.4-0.3-0.8-0.8-0.8s-0.8,0.3-0.8,0.8v4.5
	c0,0.1,0,0.2,0.1,0.3c0,0.1,0.1,0.2,0.2,0.2l2.5,2.5c0.1,0.1,0.3,0.2,0.5,0.2s0.4-0.1,0.5-0.2C257.3,81.1,257.3,80.6,257,80.3z
	 M234.3,74.9v-0.2c0-0.1-0.1-0.1-0.1-0.2c0,0,0-0.1-0.1-0.1c-0.1-0.1-0.2-0.1-0.3-0.2h-0.3c-0.1,0-0.1,0-0.2-0.1l-5.7-0.4
	c-0.6,0-1,0.4-1.1,0.9c0,0.6,0.4,1,0.9,1.1l3.2,0.2l-3.9,3.3l-3.4-2.7c-0.4-0.3-0.9-0.3-1.3,0l-6.3,5.2c-0.4,0.4-0.5,1-0.1,1.4
	c0.2,0.2,0.5,0.4,0.8,0.4c0.2,0,0.5-0.1,0.6-0.2l5.7-4.7l3.4,2.7c0.4,0.3,0.9,0.3,1.3,0l4.7-3.9l-0.1,3.4c0,0.5,0.4,1,0.9,1h0.1
	c0.5,0,1-0.4,1-1l0.1-5.6C234.3,75,234.3,74.9,234.3,74.9L234.3,74.9z"/>
<path class="st14" d="M97.9,76.1l-3.8,3.7l-3.8-3.7l-1.2,1.1l5,4.9l5-4.9L97.9,76.1z"/>
<g>
	<path class="st3" d="M112.1,70.1v6h-6v2h6v6h2v-6h6v-2h-6v-6H112.1z M135.1,76.1h-6v2h14v-2H135.1z"/>
	<g>
		<path class="st3" d="M163.6,75.6c0,2.2-4,7.5-4,7.5s-4-5.3-4-7.5s1.8-4,4-4S163.6,73.4,163.6,75.6z"/>
	</g>
</g>
<circle class="st0" cx="159.6" cy="75.6" r="2"/>
<g>
	<path class="st41" d="M54.1,51.9c-0.8,3.6-4.3,5.9-7.9,5.1c-1-0.2-3.8,0.4-3.8,0.4s0-2.7-0.4-3.3c-0.9-1.4-1.3-3.2-0.9-5
		c0.8-3.6,4.3-5.9,7.9-5.1C52.6,44.7,54.9,48.3,54.1,51.9z"/>
	<path class="st42" d="M53.1,48c2.5,0.5,4,3,3.5,5.4c-0.1,0.7,0.3,2.6,0.3,2.6s-1.8,0-2.3,0.3c-1,0.6-2.2,0.9-3.4,0.6
		c-2.5-0.5-4-3-3.5-5.4S50.7,47.5,53.1,48z"/>
</g>
<path class="st43" d="M54.3,52.1h-4c-0.2,0-0.4-0.2-0.4-0.4s0.2-0.4,0.4-0.4h4c0.2,0,0.4,0.2,0.4,0.4S54.5,52.1,54.3,52.1z
	 M52.8,53.7h-2.6c-0.2,0-0.4-0.2-0.4-0.4s0.2-0.4,0.4-0.4h2.6c0.2,0,0.4,0.2,0.4,0.4S53,53.7,52.8,53.7z"/>
<path class="st44" d="M21.2,52.1H21c-0.4,0-0.8-0.3-0.8-0.8v-1.1h0.9"/>
<path d="M21.2,52.3H21c-0.5,0-1-0.4-1-0.9v-1.3h1.1v0.4h-0.7v0.8c0,0.3,0.2,0.5,0.4,0.5h0.3C21.1,51.8,21.2,52.3,21.2,52.3z"/>
<path class="st44" d="M21.1,52.1h0.2c0.4,0,0.8-0.3,0.8-0.8v-1.1h-0.9"/>
<path d="M21.3,52.3h-0.2v-0.4h0.2c0.3,0,0.5-0.2,0.5-0.4v-0.9h-0.7v-0.4h1.1v1.3C22.3,51.8,21.8,52.3,21.3,52.3z"/>
<path class="st45" d="M21.2,51.2h1.2l1.5,0.7c1.8,0.8,3,1.9,3.3,3.6h-0.1c-1.8,1.1-3.8,1.7-5.9,1.7s-4.1-0.6-5.9-1.7h-0.1
	c0.3-1.7,1.5-2.8,3.2-3.6l1.6-0.7H21.2"/>
<g>
	<path id="J" class="st46" d="M21.2,57.4c-2.1,0-4.3-0.5-6.1-1.7H15c-0.1,0-0.1-0.1-0.1-0.2c0.3-1.6,1.3-2.8,3.4-3.8l1.6-0.8h2.7
		l1.6,0.8c2.1,1,3.1,2.1,3.4,3.8c0,0.1,0,0.2-0.1,0.2h-0.1C25.4,56.9,23.3,57.5,21.2,57.4z M15.4,55.4c1.7,1.1,3.7,1.6,5.8,1.6
		c2,0,4.1-0.5,5.8-1.6c-0.3-1.4-1.2-2.4-3.1-3.3l-1.5-0.7h-2.3l-1.5,0.7C16.6,53,15.7,54,15.4,55.4z"/>
</g>
<g>
	<path d="M21.2,57.4c-2.1,0-4.3-0.5-6.1-1.7H15c-0.1,0-0.1-0.1-0.1-0.2c0.3-1.6,1.3-2.8,3.4-3.8l1.6-0.8h2.7l1.6,0.8
		c2.1,1,3.1,2.1,3.4,3.8c0,0.1,0,0.2-0.1,0.2h-0.1C25.4,56.9,23.3,57.5,21.2,57.4z M15.4,55.4c1.7,1.1,3.7,1.6,5.8,1.6
		c2,0,4.1-0.5,5.8-1.6c-0.3-1.4-1.2-2.4-3.1-3.3l-1.5-0.7h-2.3l-1.5,0.7C16.6,53,15.7,54,15.4,55.4z"/>
</g>
<path class="st44" d="M24.5,40.7v6.7c-0.2,1.7-1.6,3-3.4,2.9c-1.7,0.1-3.2-1.2-3.4-2.9v-6.7"/>
<path d="M21.1,50.5c-1.8,0.1-3.4-1.3-3.6-3.1v-6.7h0.4v6.7c0.2,1.6,1.6,2.8,3.2,2.7c1.6,0.1,3-1.1,3.2-2.7v-6.6h0.4v6.7
	C24.5,49.2,22.9,50.6,21.1,50.5z M20.6,44.1h-0.1c-0.6-0.4-1.3-0.4-1.9,0c-0.1,0.1-0.2,0.1-0.3,0s-0.1-0.2,0-0.3
	c0.7-0.5,1.7-0.5,2.4,0C20.8,43.9,20.8,44,20.6,44.1z M24,44.1h-0.1c-0.6-0.4-1.3-0.4-1.8,0c-0.1,0.1-0.2,0.1-0.3,0s0-0.2,0-0.3
	c0.7-0.5,1.7-0.5,2.4,0c0.1,0.1,0.1,0.2,0,0.3H24z M20.9,46.9c-0.1,0-0.2-0.1-0.2-0.2s0.1-0.2,0.2-0.2c0.3,0,0.5-0.2,0.5-0.4V46
	c0-0.3-0.2-0.5-0.4-0.5h-0.1c-0.1,0-0.2-0.1-0.2-0.2s0.1-0.2,0.2-0.2c0.5,0,0.9,0.5,0.9,1.1C21.6,46.6,21.3,46.8,20.9,46.9z"/>
<path class="st44" d="M17.2,44.1h0.1c0.2,0,0.4,0.2,0.4,0.4v2c0,0.2-0.2,0.4-0.4,0.4h-0.1c-0.2,0-0.4-0.2-0.4-0.4v-2
	C16.8,44.3,16.9,44.1,17.2,44.1z"/>
<path d="M17.3,47.2h-0.1c-0.3,0-0.6-0.3-0.6-0.6v-2c0-0.3,0.3-0.6,0.6-0.6h0.1c0.3,0,0.6,0.3,0.6,0.6v2
	C17.9,46.9,17.7,47.2,17.3,47.2z M17.2,44.3c-0.1,0-0.2,0.1-0.2,0.2v2c0,0.1,0.1,0.2,0.2,0.2h0.1c0.1,0,0.2-0.1,0.2-0.2v-2
	c0-0.1-0.1-0.2-0.2-0.2H17.2z M21.1,48.3c-0.6,0-1.2-0.1-1.7-0.4c-0.1,0-0.2-0.2-0.1-0.3s0.2-0.2,0.3-0.1h0.1c1,0.5,2.1,0.5,3,0
	c0.1-0.1,0.2,0,0.3,0.1s0,0.2-0.1,0.3C22.2,48.1,21.7,48.3,21.1,48.3z"/>
<path class="st47" d="M15.4,40l5.7,1.6l5.5-1.5L21,38.6L15.4,40z"/>
<path d="M21.1,41.8l-5.7-1.6c-0.1,0-0.2-0.2-0.1-0.3c0-0.1,0.1-0.1,0.1-0.1l5.6-1.4h0.1l5.6,1.4c0.1,0,0.2,0.1,0.2,0.2
	s-0.1,0.2-0.2,0.2C26.7,40.2,21.1,41.8,21.1,41.8z M16.3,40l4.8,1.3l4.6-1.2L21,38.9L16.3,40z"/>
<path class="st47" d="M17.8,42.3c2.2,0.8,4.5,0.8,6.7,0.1v-1.7l-3.4,0.9l-3.3-0.9C17.8,40.7,17.8,42.3,17.8,42.3z"/>
<path d="M21.2,43.1c-1.2,0-2.4-0.2-3.5-0.6c-0.1,0-0.1-0.1-0.1-0.2v-1.6c0-0.1,0-0.1,0.1-0.2h0.2l3.2,0.8l3.3-0.9
	c0.1,0,0.2,0.1,0.2,0.2v1.7c0,0.1-0.1,0.2-0.1,0.2C23.5,42.9,22.3,43.1,21.2,43.1z M18,42.1c2,0.7,4.2,0.7,6.2,0v-1.2l-3.1,0.8H21
	l-3-0.8V42.1z M21.1,40.2h-5.4c-0.1,0-0.2-0.1-0.2-0.2s0.1-0.2,0.2-0.2h5.4c0.1,0,0.2,0.1,0.2,0.2C21.3,40.2,21.2,40.2,21.1,40.2z"
	/>
<path d="M15.5,43.3c-0.1,0-0.2-0.1-0.2-0.2v-3c0-0.1,0.1-0.2,0.2-0.2s0.2,0.1,0.2,0.2v3C15.7,43.2,15.6,43.3,15.5,43.3z"/>
<path d="M15.8,44.6h-0.5c-0.2,0-0.3-0.1-0.4-0.2s-0.1-0.3,0-0.5l0.4-0.9c0-0.1,0.1-0.1,0.2-0.1s0.2,0,0.2,0.1l0.5,0.9
	c0.1,0.2,0.1,0.3,0,0.5C16.1,44.5,16,44.6,15.8,44.6z M15.5,43.6l-0.3,0.5h0.5L15.5,43.6z"/>
<path class="st44" d="M25,44.1h0.1c0.2,0,0.4,0.2,0.4,0.4v2c0,0.2-0.2,0.4-0.4,0.4H25c-0.2,0-0.4-0.2-0.4-0.4v-2
	C24.6,44.3,24.8,44.1,25,44.1z"/>
<path d="M25.1,47.2H25c-0.3,0-0.6-0.3-0.6-0.6v-2c0-0.3,0.3-0.6,0.6-0.6h0.1c0.3,0,0.6,0.3,0.6,0.6v2C25.8,46.9,25.5,47.2,25.1,47.2
	z M25,44.3c-0.1,0-0.2,0.1-0.2,0.2v2c0,0.1,0.1,0.2,0.2,0.2h0.1c0.1,0,0.2-0.1,0.2-0.2v-2c0-0.1-0.1-0.2-0.2-0.2H25z"/>
<circle class="st48" cx="27.9" cy="50.7" r="4.9"/>
<g>
	<path id="K" class="st46" d="M27.9,55.9c-2.8,0-5.1-2.3-5.1-5.1s2.3-5.1,5.1-5.1S33,48,33,50.8C33,53.5,30.7,55.9,27.9,55.9z
		 M27.9,46c-2.6,0-4.7,2.1-4.7,4.7s2.1,4.7,4.7,4.7s4.7-2.1,4.7-4.7S30.5,46,27.9,46z"/>
</g>
<g>
	<path d="M27.9,55.9c-2.8,0-5.1-2.3-5.1-5.1s2.3-5.1,5.1-5.1S33,48,33,50.8C33,53.5,30.7,55.9,27.9,55.9z M27.9,46
		c-2.6,0-4.7,2.1-4.7,4.7s2.1,4.7,4.7,4.7s4.7-2.1,4.7-4.7S30.5,46,27.9,46z"/>
</g>
<path d="M27.2,52.8c-0.1,0-0.1,0-0.2-0.1L25.5,51c-0.1-0.1-0.1-0.2,0-0.3s0.2-0.1,0.3,0l1.3,1.5l3.3-3.6c0.1-0.1,0.2-0.1,0.3,0
	s0.1,0.2,0,0.3C30.7,48.9,27.2,52.8,27.2,52.8z"/>
<path class="st49" d="M273,102.2l0.3-0.3l-0.1-0.1l-0.4,0.1l0.3-0.3c0,0,0-0.1-0.1-0.1l-0.5,0.2l0.2-0.3c-0.2-0.1-0.4-0.1-0.6-0.1
	c-0.7,0-1.4,0.6-1.4,1.2c0,0.7,0.6,1.2,1.4,1.2c0.7,0,1.4-0.6,1.4-1.2c0-0.1,0-0.2-0.1-0.4L273,102.2L273,102.2z"/>
<path class="st50" d="M337.5,108l2.7,0.3c-0.1,0.6-0.4,1-0.7,1.4s-0.8,0.7-1.3,0.9s-1.2,0.3-2,0.3s-1.4-0.1-1.9-0.2
	s-0.9-0.4-1.3-0.7s-0.7-0.7-0.9-1.1s-0.3-1-0.3-1.7c0-0.8,0.1-1.4,0.4-1.9c0.2-0.4,0.4-0.7,0.8-1c0.3-0.3,0.7-0.5,1-0.6
	c0.5-0.2,1.2-0.3,2.1-0.3c1.2,0,2.1,0.2,2.7,0.6s1.1,1.1,1.3,1.9l-2.6,0.4c-0.1-0.3-0.2-0.5-0.5-0.7c-0.2-0.2-0.5-0.2-0.9-0.2
	c-0.5,0-0.8,0.2-1.1,0.5s-0.4,0.8-0.4,1.5c0,0.6,0.1,1.1,0.4,1.4s0.6,0.5,1.1,0.5c0.4,0,0.7-0.1,0.9-0.3
	C337.2,108.7,337.4,108.4,337.5,108 M341.1,107.2c0-1,0.4-2,1.1-2.7c0.8-0.7,1.8-1.1,3-1.1c1.5,0,2.6,0.4,3.3,1.3
	c0.6,0.7,0.9,1.5,0.9,2.5c0,1.1-0.4,2-1.1,2.8c-0.7,0.7-1.8,1.1-3.1,1.1c-1.2,0-2.1-0.3-2.8-0.9
	C341.5,109.4,341.1,108.4,341.1,107.2 M343.9,107.2c0,0.6,0.1,1.1,0.4,1.4s0.6,0.5,1,0.5s0.7-0.2,1-0.5s0.4-0.8,0.4-1.5
	c0-0.6-0.1-1.1-0.4-1.4s-0.6-0.5-1-0.5s-0.7,0.2-1,0.5C344,106.1,343.9,106.6,343.9,107.2 M350.8,103.6h2.6v1.1
	c0.4-0.4,0.8-0.8,1.1-0.9c0.4-0.2,0.8-0.3,1.4-0.3s1,0.1,1.4,0.3c0.3,0.2,0.6,0.5,0.8,0.9c0.4-0.5,0.8-0.8,1.2-1s0.8-0.3,1.3-0.3
	c0.8,0,1.4,0.2,1.8,0.7s0.7,1.2,0.7,2.2v4.6h-2.8v-4.2c0-0.3-0.1-0.6-0.2-0.7c-0.2-0.3-0.4-0.4-0.7-0.4s-0.6,0.1-0.8,0.4
	c-0.2,0.2-0.3,0.6-0.3,1.1v3.8h-2.8v-4c0-0.3,0-0.5-0.1-0.7s-0.2-0.3-0.3-0.4c-0.1-0.1-0.3-0.2-0.5-0.2c-0.3,0-0.6,0.1-0.8,0.4
	c-0.2,0.2-0.3,0.6-0.3,1.2v3.7h-2.8C350.8,110.9,350.8,103.6,350.8,103.6L350.8,103.6z"/>
<path class="st51" d="M281.7,103.6h2.6v1.2c0.4-0.5,0.8-0.8,1.2-1s0.9-0.3,1.5-0.3c0.8,0,1.4,0.2,1.8,0.7s0.7,1.2,0.7,2.1v4.6h-2.8
	v-4c0-0.5-0.1-0.8-0.3-1s-0.4-0.3-0.7-0.3s-0.6,0.1-0.8,0.4s-0.3,0.7-0.3,1.4v3.5h-2.8C281.7,110.9,281.7,103.6,281.7,103.6
	L281.7,103.6z M293.6,105.9l-2.7-0.3c0.1-0.5,0.2-0.8,0.4-1.1s0.5-0.5,0.8-0.7c0.3-0.1,0.6-0.3,1.1-0.3c0.4-0.1,0.9-0.1,1.5-0.1
	c0.8,0,1.5,0,2,0.1s0.9,0.3,1.3,0.6c0.2,0.2,0.4,0.5,0.6,0.9c0.1,0.4,0.2,0.7,0.2,1.1v3.2c0,0.3,0,0.6,0.1,0.8
	c0,0.2,0.1,0.4,0.3,0.7h-2.6c-0.1-0.2-0.2-0.3-0.2-0.4s-0.1-0.3-0.1-0.5c-0.4,0.4-0.7,0.6-1.1,0.8c-0.5,0.2-1.1,0.3-1.7,0.3
	c-0.9,0-1.5-0.2-2-0.6s-0.7-0.9-0.7-1.5s0.2-1,0.5-1.4s0.9-0.6,1.8-0.8l2-0.4l1-0.3c0-0.3-0.1-0.6-0.2-0.7s-0.4-0.2-0.7-0.2
	c-0.5,0-0.8,0.1-1,0.2C293.9,105.4,293.7,105.6,293.6,105.9 M296,107.4c-0.4,0.1-0.8,0.3-1.2,0.4l-1.1,0.4c-0.2,0.2-0.2,0.3-0.2,0.5
	s0.1,0.4,0.2,0.5c0.2,0.1,0.4,0.2,0.7,0.2s0.6-0.1,0.9-0.2c0.3-0.2,0.5-0.3,0.6-0.6c0.1-0.2,0.2-0.5,0.2-0.8
	C296,107.8,296,107.4,296,107.4z M308.1,110.9h-2.6v-1.2c-0.4,0.5-0.8,0.8-1.2,1s-0.9,0.3-1.5,0.3c-0.8,0-1.4-0.2-1.8-0.7
	s-0.7-1.2-0.7-2.1v-4.6h2.8v4c0,0.5,0.1,0.8,0.3,1s0.4,0.3,0.7,0.3s0.6-0.1,0.8-0.4s0.3-0.7,0.3-1.4v-3.5h2.8v7.3L308.1,110.9
	L308.1,110.9z M309.8,100.8h2.9v5.2l2.1-2.4h3.4l-2.6,2.5l2.7,4.8h-3.1l-1.5-3l-1,1.1v1.9h-2.9V100.8z M319.2,103.6h2.6v1.2
	c0.3-0.5,0.5-0.9,0.8-1.1s0.6-0.3,1-0.3s0.9,0.1,1.4,0.4l-0.9,2c-0.3-0.1-0.6-0.2-0.8-0.2c-0.4,0-0.6,0.2-0.9,0.5
	c-0.3,0.4-0.4,1.2-0.4,2.4v2.4h-2.8L319.2,103.6L319.2,103.6z M325.5,100.8h2.8v1.9h-2.8V100.8z M325.5,103.6h2.8v7.3h-2.8V103.6z"
	/>
<g>
	<path class="st50" d="M278.8,101.4c0,0-5.2,2.2-4.3,5.8s7,6.1,7,6.1s-9.9-2-9.7-6.4C271.9,103.5,276.9,101.2,278.8,101.4"/>
	<path class="st50" d="M282.4,114.6l-0.6-0.1c0,0-2.6-0.5-5.1-1.5c-1.5-0.6-2.7-1.3-3.5-2c-1.1-0.9-1.6-1.9-1.6-3
		c0-2,1.8-3.5,2.9-4.2c1.5-1,3.3-1.7,4.5-1.7h0.6l-0.3,0.1c0,0-1.3,0.5-2.5,1.4c-1.1,0.9-2.4,2.3-2.3,4.2c0.1,0.8,0.5,1.7,1.2,2.5
		c0.6,0.7,1.5,1.4,2.5,2.1c1.8,1.2,3.6,1.9,3.6,1.9L282.4,114.6L282.4,114.6z M278.9,102.2c-1.1,0-3,0.7-4.4,1.7
		c-1,0.7-2.8,2.2-2.8,4.1c0,1,0.5,2,1.6,2.9c0.8,0.7,2,1.4,3.5,2c1.8,0.7,3.6,1.2,4.5,1.4c-0.7-0.3-1.9-0.9-3.1-1.7
		c-1.1-0.7-1.9-1.4-2.5-2.1c-0.8-0.9-1.2-1.8-1.3-2.6c-0.1-0.9,0.2-1.7,0.7-2.5c0.4-0.6,1-1.2,1.7-1.8c0.9-0.7,1.9-1.2,2.3-1.4
		H278.9"/>
</g>
<path class="st49" d="M331.5,110.5c0,0.7-0.5,1.2-1.2,1.2s-1.2-0.5-1.2-1.2s0.5-1.2,1.2-1.2C330.9,109.3,331.5,109.8,331.5,110.5"/>
<path class="st3" d="M78.2,77.1l0.8-0.9l3.8,3.9l-3.8,4l-0.8-0.9l2.9-3.1L78.2,77.1z"/>
<g>
	<path id="L" class="st0" d="M253.3,114.6h-17.8c-1,0-1.8-0.8-1.8-1.8l0,0v-14c0-1,0.8-1.8,1.8-1.8l0,0h17.8c1,0,1.8,0.8,1.8,1.8
		l0,0v13.9C255.2,113.8,254.3,114.6,253.3,114.6"/>
</g>
<g>
	<path id="M" class="st52" d="M253.3,114.6h-17.8c-1,0-1.8-0.8-1.8-1.8l0,0v-14c0-1,0.8-1.8,1.8-1.8l0,0h17.8c1,0,1.8,0.8,1.8,1.8
		l0,0v13.9C255.2,113.8,254.3,114.6,253.3,114.6z"/>
</g>
<g>
	<path class="st0" d="M253.3,112.2h-17.8c-1,0-1.8-0.8-1.8-1.8l0,0v-14c0-1,0.8-1.8,1.8-1.8l0,0h17.8c1,0,1.8,0.8,1.8,1.8l0,0v13.9
		C255.2,111.4,254.3,112.2,253.3,112.2"/>
</g>
<g>
	<path class="st52" d="M253.3,112.2h-17.8c-1,0-1.8-0.8-1.8-1.8l0,0v-14c0-1,0.8-1.8,1.8-1.8l0,0h17.8c1,0,1.8,0.8,1.8,1.8l0,0v13.9
		C255.2,111.4,254.3,112.2,253.3,112.2z"/>
</g>
<g>
	<path id="N" class="st53" d="M233.7,99.6v-3.3c0-0.9,0.8-1.7,1.8-1.7h17.8c1,0,1.8,0.8,1.8,1.7v3.3H233.7L233.7,99.6z"/>
</g>
<g>
	<path class="st52" d="M233.7,99.6v-3.3c0-0.9,0.8-1.7,1.8-1.7h17.8c1,0,1.8,0.8,1.8,1.7v3.3H233.7L233.7,99.6z"/>
</g>
<path class="st0" d="M247.9,105.9c0,1.9-1.6,3.5-3.5,3.5s-3.5-1.6-3.5-3.5s1.6-3.5,3.5-3.5C246.4,102.4,247.9,104,247.9,105.9"/>
<g>
	<path class="st52" d="M247.9,105.9c0,1.9-1.6,3.5-3.5,3.5s-3.5-1.6-3.5-3.5s1.6-3.5,3.5-3.5C246.4,102.4,247.9,104,247.9,105.9z"/>
	<path class="st54" d="M243.1,105.9l0.8,0.9l1.9-1.7"/>
</g>
<path class="st53" d="M239.5,96.7c-0.5,0-1-0.4-1-1V94c0-0.5,0.4-1,1-1c0.5,0,1,0.4,1,1v1.7C240.5,96.3,240,96.7,239.5,96.7"/>
<path class="st55" d="M239.5,96.7c-0.5,0-1-0.4-1-1V94c0-0.5,0.4-1,1-1c0.5,0,1,0.4,1,1v1.7C240.5,96.3,240,96.7,239.5,96.7z"/>
<path class="st53" d="M249.4,96.7c-0.5,0-1-0.4-1-1V94c0-0.5,0.4-1,1-1c0.5,0,1,0.4,1,0.9v1.8C250.4,96.3,249.9,96.7,249.4,96.7"/>
<path class="st55" d="M249.4,96.7c-0.5,0-1-0.4-1-1V94c0-0.5,0.4-1,1-1c0.5,0,1,0.4,1,0.9v1.8C250.4,96.3,249.9,96.7,249.4,96.7z"/>
<path class="st16" d="M224,100.2h-12.4c-0.6,0-1.1,0.5-1.1,1.1v12.1c0,0.3,0.4,0.5,0.6,0.3l2.7-1.9c0.1-0.1,0.2-0.1,0.2-0.1h9.9
	c0.6,0,1.1-0.5,1.1-1.1v-9.4C225.1,100.7,224.6,100.2,224,100.2z M218.2,109.3c0,0.2-0.1,0.3-0.3,0.3h-1.1c-0.2,0-0.3-0.1-0.3-0.3
	v-0.9c0-0.2,0.1-0.3,0.3-0.3h1.1c0.2,0,0.3,0.1,0.3,0.3V109.3z M219.9,104.6c0,0.6-0.2,1.1-0.7,1.5c-0.2,0.1-0.3,0.2-0.5,0.3
	c-0.3,0.2-0.5,0.4-0.5,0.7c0,0.1-0.1,0.2-0.2,0.2h-1.2c-0.2,0-0.2-0.1-0.2-0.2c-0.1-0.6,0.3-1,0.7-1.4c0.1-0.1,0.3-0.2,0.4-0.3
	s0.2-0.1,0.3-0.2c0.3-0.2,0.3-0.6,0-0.9c-0.4-0.3-1-0.3-1.3,0.1c-0.2,0.1-0.3,0.3-0.4,0.5c-0.1,0.1-0.2,0.1-0.3,0l-0.8-0.6
	c-0.2-0.1-0.2-0.2-0.1-0.4c0.4-0.7,1-1.2,1.8-1.3c0.9-0.2,1.7,0,2.4,0.7C219.6,103.7,219.9,104.1,219.9,104.6z"/>
<path class="st0" d="M51,86.6c-0.7,0-1.2-0.5-1.2-1.2V73c0-0.7,0.5-1.2,1.2-1.2h7.4l-1.7,1.7h-5.2v11.4h11.8v-2.3l1.7-1.7v4.5
	c0,0.7-0.5,1.2-1.2,1.2H51z M63.3,71.7v-2.1l5.5,5.5l-5.5,5.5v-2.2c0,0-2.8-0.5-5.6,1.2c-1.5,1-2.6,2.2-3.2,3.2c0,0,0.2-3.4,2.2-6.6
	C59.1,72.3,63.3,71.7,63.3,71.7z"/>
<path class="st56" d="M392.8,35l-7.2-4.3l-7.2,4.3"/>
<path class="st0" d="M380.4,33.9v8.3h3.5v-3.5h3.5v3.5h3.4v-8.3l-5.2-3L380.4,33.9z"/>
<g>
	<path class="st57" d="M412.6,35l-7.2-4.3l-7.2,4.3"/>
	<path class="st58" d="M400.2,33.9v8.3h3.4v-3.5h3.5v3.5h3.5v-8.3l-5.2-3L400.2,33.9z"/>
</g>
<path d="M421.2,44.1c-0.1,0-0.3,0-0.4-0.1l-1.9-1.9c-0.2-0.2-0.2-0.5,0-0.7s0.5-0.2,0.7,0l1.6,1.6l1.6-1.6c0.2-0.2,0.5-0.2,0.7,0
	s0.2,0.5,0,0.7l-1.9,1.9C421.5,44.1,421.4,44.1,421.2,44.1L421.2,44.1z"/>
<g>
	<path id="O" d="M421.2,43.2c-0.3,0-0.5-0.2-0.5-0.4c0,0,0,0,0-0.1v-10c0-0.3,0.2-0.5,0.5-0.5s0.5,0.2,0.5,0.5v10
		C421.7,43,421.5,43.2,421.2,43.2L421.2,43.2z"/>
</g>
<path d="M428.9,35c-0.1,0-0.3,0-0.4-0.1l-1.6-1.6l-1.6,1.6c-0.2,0.2-0.5,0.2-0.7,0s-0.2-0.5,0-0.7l1.9-1.9c0.2-0.2,0.5-0.2,0.7,0
	l1.9,1.9c0.2,0.2,0.2,0.5,0,0.7C429.1,35,429,35,428.9,35L428.9,35z"/>
<g>
	<path d="M426.9,44c-0.3,0-0.5-0.2-0.5-0.4c0,0,0,0,0-0.1v-10c0-0.3,0.2-0.5,0.5-0.5s0.5,0.2,0.5,0.5v10
		C427.4,43.8,427.2,44,426.9,44L426.9,44z"/>
</g>
<path class="st59" d="M377.6,57.9l-2.8,2.9l-2.9-2.9 M374.8,60.8V49.7 M385.4,52.5l2.8-2.8l2.9,2.8 M388.2,49.7v11.1"/>
<g id="Page-1">
	<g id="Artboard" transform="translate(-20.000000, -10.000000)">
		<g id="Group-26" transform="translate(4.000000, 3.000000)">
			<g id="Group-2" transform="translate(16.000000, 7.000000)">
				<path id="Combined-Shape" class="st0" d="M32.9,81.7c0.3,0,0.6,0.1,0.8,0.3c0.2,0.2,0.3,0.5,0.3,0.8v3.3c0,0.1,0,0.2,0,0.3
					c-0.1,0.5-0.6,0.9-1.1,0.9H13.2c-0.6,0-1.1-0.4-1.1-1v-0.1v-3.4c0-0.6,0.5-1.1,1.1-1.1c0.3,0,0.6,0.1,0.8,0.3s0.3,0.5,0.3,0.8
					v2.3h17.5v-2.3C31.8,82.2,32.3,81.7,32.9,81.7z M23,67.3c0.4,0,0.7,0.2,0.9,0.4c0.2,0.2,0.4,0.6,0.4,0.9V79l3.3-3.4
					c0.5-0.5,1.4-0.5,1.9,0s0.5,1.4,0,1.9L24,83.1l0,0c-0.2,0.2-0.5,0.3-0.7,0.4c0,0,0,0-0.1,0h-0.1H23c0,0,0,0-0.1,0
					c-0.3,0-0.5-0.2-0.7-0.4l0,0l0,0l-5.6-5.6c-0.3-0.3-0.4-0.6-0.4-0.9s0.1-0.7,0.4-0.9c0.5-0.5,1.4-0.5,1.9,0l3.3,3.4V68.7
					C21.7,67.9,22.3,67.3,23,67.3z"/>
			</g>
		</g>
	</g>
</g>
<path class="st60" d="M198.6,93.5L198.6,93.5c0.2,0.1,0.3,0.3,0.3,0.5c0,0,0,0,0,0l-1.1,3.9c-0.1,0.2-0.3,0.3-0.5,0.3l0,0
	c-0.2-0.1-0.3-0.3-0.3-0.5c0,0,0,0,0,0l1.1-3.9C198.2,93.6,198.4,93.4,198.6,93.5z M202.4,95.8L202.4,95.8c0.2,0.2,0.2,0.4,0,0.5
	c0,0,0,0,0,0l-2.9,2.9c-0.1,0.1-0.4,0.1-0.5,0l0,0c-0.1-0.1-0.2-0.4,0-0.5c0,0,0,0,0,0l2.9-2.9C202.1,95.6,202.3,95.6,202.4,95.8z
	 M204.2,99.3c0.2-0.1,0.4,0.1,0.5,0.3l0,0c0.1,0.2-0.1,0.4-0.3,0.5l-3.9,1.1c-0.2,0.1-0.4-0.1-0.5-0.3l0,0c-0.1-0.2,0.1-0.4,0.3-0.5
	L204.2,99.3z M196.3,100.1c0.9-0.2,1.9,0.3,2.1,1.2c0.2,0.9-0.3,1.9-1.2,2.1l0,0L196.3,100.1L196.3,100.1z M182.8,102l1.7,6.5
	l-2.7,0.7c-1.8,0.5-3.6-0.6-4.1-2.4c-0.5-1.8,0.6-3.6,2.4-4.1L182.8,102z M200.5,102.5l3.9,1c0.2,0.1,0.3,0.3,0.3,0.5c0,0,0,0,0,0
	l0,0c-0.1,0.2-0.3,0.3-0.5,0.3l-3.9-1c-0.2-0.1-0.3-0.3-0.3-0.5l0,0l0,0C200,102.6,200.3,102.5,200.5,102.5z M191.1,95.8l3.7,13.9
	c-1.7-0.8-3.1-1.3-4.2-1.5c-1.1-0.2-2.9-0.1-5.4,0.1l-1.7-6.5c2.3-1,3.9-1.9,4.7-2.5S190.1,97.4,191.1,95.8z M199.6,104.5l2.9,2.9
	c0.2,0.1,0.2,0.4,0,0.5c0,0,0,0,0,0l0,0c-0.1,0.1-0.4,0.1-0.5,0l-2.9-2.9c-0.2-0.1-0.2-0.4,0-0.5c0,0,0,0,0,0l0,0
	C199.2,104.4,199.5,104.4,199.6,104.5z M192.6,93.7c0.6-0.2,1.2,0.2,1.4,0.8l4,14.9c0.2,0.6-0.2,1.2-0.8,1.4l0,0
	c-0.6,0.2-1.2-0.2-1.4-0.8l-4-14.9C191.6,94.5,192,93.9,192.6,93.7L192.6,93.7z M184.9,109.3l2.4,5.2c0.3,0.6,0,1.3-0.6,1.5
	c-0.1,0-0.1,0-0.2,0.1c-0.8,0.2-1.5-0.2-1.9-0.9l-2.4-5.2L184.9,109.3z"/>
</svg>
