<svg dataName="Layer 1" xmlns="http://www.w3.org/2000/svg" viewBox="0 0 85.49 53"><g dataName="Group 11233"><path dataName="Path 3061" d="M30.6 25.58A2.46 2.46 0 1 0 33.06 28a2.47 2.47 0 0 0-2.46-2.42zM32.09 28a1.49 1.49 0 1 1-1.49-1.49A1.49 1.49 0 0 1 32.09 28z" fill="#4285f4"></path></g><g dataName="Group 11234"><path dataName="Path 3062" d="M55.39 25.58A2.46 2.46 0 1 0 57.84 28a2.47 2.47 0 0 0-2.45-2.42zM56.88 28a1.49 1.49 0 1 1-1.49-1.49A1.49 1.49 0 0 1 56.88 28z" fill="#4285f4"></path></g><g dataName="Group 11235" fill="#4285f4"><path dataName="Path 3063" d="M74.27 28a1.53 1.53 0 1 0 1.53 1.52A1.52 1.52 0 0 0 74.27 28zm.73 1.53a.76.76 0 0 1-.75.75.75.75 0 0 1 0-1.49.76.76 0 0 1 .75.75z"></path><path dataName="Path 3064" d="M63.23 28a1.53 1.53 0 1 0 1.53 1.52A1.52 1.52 0 0 0 63.23 28zm.77 1.53a.76.76 0 0 1-.75.75.75.75 0 0 1 0-1.49.76.76 0 0 1 .75.75z"></path></g><g dataName="Group 11236" fill="#4285f4"><path dataName="Path 3065" d="M22.32 28a1.53 1.53 0 1 0 1.52 1.52A1.52 1.52 0 0 0 22.32 28zm.74 1.52a.75.75 0 0 1-.74.75.76.76 0 0 1-.75-.75.75.75 0 1 1 1.49 0z"></path><path dataName="Path 3066" d="M11.28 28a1.53 1.53 0 1 0 1.52 1.52A1.52 1.52 0 0 0 11.28 28zm.72 1.53a.75.75 0 0 1-.74.75.76.76 0 0 1-.75-.75.75.75 0 0 1 1.49 0z"></path></g><path dataName="Path 3067" d="M78.2 52.09V23.31h-3v-5.57h-15V10h-2.27V7.53c0-2.42-1.37-4.43-3.2-4.75V0h-1v2.78c-1.83.32-3.2 2.33-3.2 4.75V10H35V7.53c0-2.42-1.37-4.43-3.2-4.75V0h-1v2.78c-1.83.32-3.2 2.33-3.2 4.75V10h-2.34v7.78h-15v5.57h-3v28.74H0V53h85.49v-.91zM11.75 52V37.65a5.24 5.24 0 0 1 5-5.46 5.24 5.24 0 0 1 5 5.46V52zm21.94 0V36.68a8.94 8.94 0 0 1 8.92-8.92h.29a8.93 8.93 0 0 1 8.92 8.92V52zm25.55-28.69h-6.78v-4.58h6.78zM63.79 52V37.65a5 5 0 1 1 9.92 0V52zm-3.55-33.27h14v4.58h-14zm0 5.58h3.41v3h1v-3h3.6v3h1v-3h3.6v3h1v-3h3.36V52h-2.5V37.65a6 6 0 1 0-11.91 0V52h-2.56zm-8.7-16.78c0-2.1 1.21-3.8 2.7-3.8s2.7 1.7 2.7 3.8V10h-5.4zm-22.95 0c0-2.1 1.21-3.8 2.7-3.8S34 5.43 34 7.53V10h-5.4zM26.28 11h33v6.77h-33zm25.19 7.77v4.58h-3.6v-4.62zm-4.6 0v4.58h-3.6v-4.62zm-4.6 0v4.58h-3.6v-4.62zm-4.6 0v4.58h-3.6v-4.62zm-11.39 0h6.79v4.58h-6.79zm0 5.58h33V52h-6.45V36.68a9.93 9.93 0 0 0-9.92-9.91h-.29a9.93 9.93 0 0 0-9.92 9.91V52h-6.42zm-15-5.58h14v4.58h-14zm-3 5.58h3.3v3h1v-3h3.6v3h1v-3h3.6v3h1v-3h3.47V52h-2.58V37.65a6.23 6.23 0 0 0-6-6.46 6.24 6.24 0 0 0-6 6.46V52H8.32z" fill="#011638"></path></svg>