<svg dataName="Layer 1" xmlns="http://www.w3.org/2000/svg" viewBox="0 0 92.34 53"><g dataName="Group 11242"><g dataName="Group 11239"><path dataName="Path 3068" d="M52.69 7.54a1.7 1.7 0 1 0 1.7 1.7 1.7 1.7 0 0 0-1.7-1.7zm.83 1.7a.83.83 0 1 1-.83-.83.83.83 0 0 1 .83.83z" fill="#4285f4"></path></g><g dataName="Group 11240"><path dataName="Path 3069" d="M46.54 7.54a1.7 1.7 0 1 0 1.7 1.7 1.7 1.7 0 0 0-1.7-1.7zm.83 1.7a.83.83 0 1 1-.83-.83.83.83 0 0 1 .83.83z" fill="#4285f4"></path></g><g dataName="Group 11241"><path dataName="Path 3070" d="M40.39 7.54a1.7 1.7 0 1 0 1.7 1.7 1.7 1.7 0 0 0-1.7-1.7zm.83 1.7a.83.83 0 1 1-.83-.83.83.83 0 0 1 .83.83z" fill="#4285f4"></path></g></g><g dataName="Group 11246"><g dataName="Group 11243"><path dataName="Path 3071" d="M28.28 18.88a1.7 1.7 0 1 0 1.7 1.7 1.7 1.7 0 0 0-1.7-1.7zm.82 1.7a.83.83 0 1 1-.82-.82.83.83 0 0 1 .82.82z" fill="#4285f4"></path></g><g dataName="Group 11244"><path dataName="Path 3072" d="M22.13 18.88a1.7 1.7 0 1 0 1.7 1.7 1.7 1.7 0 0 0-1.7-1.7zm.82 1.7a.83.83 0 1 1-.82-.82.83.83 0 0 1 .82.82z" fill="#4285f4"></path></g><g dataName="Group 11245"><path dataName="Path 3073" d="M16 18.88a1.7 1.7 0 1 0 1.7 1.7 1.7 1.7 0 0 0-1.7-1.7zm.83 1.7a.83.83 0 0 1-.83.83.83.83 0 1 1 0-1.65.83.83 0 0 1 .83.82z" fill="#4285f4"></path></g></g><g dataName="Group 11250"><g dataName="Group 11247"><path dataName="Path 3074" d="M77.22 18.88a1.7 1.7 0 1 0 1.7 1.7 1.7 1.7 0 0 0-1.7-1.7zm.83 1.7a.83.83 0 1 1-.83-.82.83.83 0 0 1 .83.82z" fill="#4285f4"></path></g><g dataName="Group 11248"><path dataName="Path 3075" d="M71.07 18.88a1.7 1.7 0 1 0 1.7 1.7 1.7 1.7 0 0 0-1.7-1.7zm.82 1.7a.83.83 0 1 1-.82-.82.83.83 0 0 1 .82.82z" fill="#4285f4"></path></g><g dataName="Group 11249"><path dataName="Path 3076" d="M64.92 18.88a1.7 1.7 0 1 0 1.7 1.7 1.7 1.7 0 0 0-1.7-1.7zm.82 1.7a.83.83 0 1 1-.82-.82.83.83 0 0 1 .82.82z" fill="#4285f4"></path></g></g><path dataName="Path 3077" d="M87 52v-6.95h-3.28V30.31h3.86v-1.13h-3.86V17.42h3.86v-1.11h-3.86V9.68h-.06a.57.57 0 0 0-.3-.27A36.84 36.84 0 0 0 61 7.93V5.06h2.79V3.93H58V0H34.36v3.93H27.9v1.13h2.74v2.69A37.38 37.38 0 0 0 9 9.41a.53.53 0 0 0-.3.27h-.06v6.63H4.78v1.13h3.86v11.74H4.78v1.13h3.86V45H5.09v7H0v1h92.34v-1zm-4.41-41.67v5.74a37.74 37.74 0 0 0-12.89-2.26 30.38 30.38 0 0 0-11.81 2.11v-5.66c1.24-.57 11.58-4.92 24.7.07zm-24.7 25.76V17.2c1.25-.57 11.58-4.92 24.7.06v18.83zm24.7 1.13v7.83h-24.7v-7.83zM35.49 1.13h21.38v2.8H35.49zm-3.72 3.93h28.07v3.2A11 11 0 0 0 57 9.48a.55.55 0 0 0-.17.2h-.06v4.11H35.61V9.68h-.06a.55.55 0 0 0-.17-.2A13.39 13.39 0 0 0 31.77 8zm14.41 13.46c-3.78 0-6.85 2.29-6.85 5.1v21.43H35.6V14.92h21.16v30.13H53V23.62c0-2.82-3.07-5.1-6.85-5.1zm5.72 5.1v21.43H40.46V23.62c0-2.19 2.57-4 5.72-4s5.72 1.78 5.72 4zM9.77 10.33c13.12-5 23.46-.64 24.7-.07v5.66c-3.76-1.74-14-3.77-24.7.15zm0 6.94c13.12-5 23.46-.64 24.7-.06v18.88H9.77zm0 20h24.7v7.83H9.77zm-3.55 9h79.64v5.7H6.22z" fill="#011638"></path></svg>